# xmcd CD database file
#
# Track frame offsets:
#	150
#	3923
#	7644
#	19793
#	25848
#	36866
#	55105
#	61328
#	67585
#	73910
#	85179
#	96364
#	102471
#	108563
#	114617
#	120681
#	126845
#	133093
#	144345
#	155542
#	161701
#	167931
#	174197
#	197062
#	210542
#	221141
#	231980
#	245798
#	259594
#	269380
#	279000
#	287169
#
# Disc length: 3849 seconds
#
# Revision: 2
# Processed by: cddbd v1.5.2PL0 Copyright (c) Steve Scherf et al.
# Submitted via: CDex 1.51
#
DISCID=ca0f0720
DTITLE=Bob Magnusson - Art of Walking Bass
DYEAR=1999
DGENRE=Jazz
TTITLE0=Ex. 1
TTITLE1=Ex. 2
TTITLE2=Ex. 3
TTITLE3=Ex. 4
TTITLE4=Ex. 5
TTITLE5=Ex. 6
TTITLE6=Ex. 7
TTITLE7=Ex. 8
TTITLE8=Ex. 9
TTITLE9=Ex. 10
TTITLE10=Ex. 11
TTITLE11=Ex. 12
TTITLE12=Ex. 13
TTITLE13=Ex. 14
TTITLE14=Ex. 15
TTITLE15=Ex. 16
TTITLE16=Ex. 17
TTITLE17=Ex. 18
TTITLE18=Ex. 19
TTITLE19=Ex. 20
TTITLE20=Ex. 21
TTITLE21=Ex. 22
TTITLE22=Ex. 23
TTITLE23=Ex. 24
TTITLE24=Ex. 25
TTITLE25=Ex. 26
TTITLE26=Ex. 27
TTITLE27=Ex. 28
TTITLE28=Ex. 29
TTITLE29=Ex. 30
TTITLE30=Ex. 31
TTITLE31=Ex. 32
EXTD=YEAR: 1999
EXTT0=
EXTT1=
EXTT2=
EXTT3=
EXTT4=
EXTT5=
EXTT6=
EXTT7=
EXTT8=
EXTT9=
EXTT10=
EXTT11=
EXTT12=
EXTT13=
EXTT14=
EXTT15=
EXTT16=
EXTT17=
EXTT18=
EXTT19=
EXTT20=
EXTT21=
EXTT22=
EXTT23=
EXTT24=
EXTT25=
EXTT26=
EXTT27=
EXTT28=
EXTT29=
EXTT30=
EXTT31=
PLAYORDER=
